<mxfile host="app.diagrams.net" modified="2023-12-19T10:45:21.266Z" agent="Mozilla/5.0 (Macintosh; Intel Mac OS X 10_15_7) AppleWebKit/537.36 (KHTML, like Gecko) Chrome/119.0.0.0 Safari/537.36" etag="y-6toq9yeC4RdvUMBbmC" version="22.1.11" type="device">
  <diagram name="Page-1" id="yeNbnS1fe-diHzpEonQ5">
    <mxGraphModel dx="1060" dy="713" grid="1" gridSize="10" guides="1" tooltips="1" connect="1" arrows="1" fold="1" page="1" pageScale="1" pageWidth="827" pageHeight="1169" math="0" shadow="0">
      <root>
        <mxCell id="0" />
        <mxCell id="1" parent="0" />
        <mxCell id="tV-kY4EEq9-toIPVNdlh-13" style="edgeStyle=orthogonalEdgeStyle;rounded=0;orthogonalLoop=1;jettySize=auto;html=1;" edge="1" parent="1" source="tV-kY4EEq9-toIPVNdlh-9" target="tV-kY4EEq9-toIPVNdlh-10">
          <mxGeometry relative="1" as="geometry" />
        </mxCell>
        <mxCell id="tV-kY4EEq9-toIPVNdlh-9" value="" style="rounded=0;whiteSpace=wrap;html=1;" vertex="1" parent="1">
          <mxGeometry x="160" y="70" width="570" height="80" as="geometry" />
        </mxCell>
        <mxCell id="tV-kY4EEq9-toIPVNdlh-14" style="edgeStyle=orthogonalEdgeStyle;rounded=0;orthogonalLoop=1;jettySize=auto;html=1;" edge="1" parent="1" source="tV-kY4EEq9-toIPVNdlh-10" target="tV-kY4EEq9-toIPVNdlh-11">
          <mxGeometry relative="1" as="geometry" />
        </mxCell>
        <mxCell id="tV-kY4EEq9-toIPVNdlh-10" value="" style="rounded=0;whiteSpace=wrap;html=1;" vertex="1" parent="1">
          <mxGeometry x="160" y="210" width="570" height="100" as="geometry" />
        </mxCell>
        <mxCell id="tV-kY4EEq9-toIPVNdlh-15" style="edgeStyle=orthogonalEdgeStyle;rounded=0;orthogonalLoop=1;jettySize=auto;html=1;" edge="1" parent="1" source="tV-kY4EEq9-toIPVNdlh-11" target="tV-kY4EEq9-toIPVNdlh-12">
          <mxGeometry relative="1" as="geometry" />
        </mxCell>
        <mxCell id="tV-kY4EEq9-toIPVNdlh-11" value="" style="rounded=0;whiteSpace=wrap;html=1;" vertex="1" parent="1">
          <mxGeometry x="160" y="360" width="570" height="210" as="geometry" />
        </mxCell>
        <mxCell id="tV-kY4EEq9-toIPVNdlh-12" value="" style="rounded=0;whiteSpace=wrap;html=1;" vertex="1" parent="1">
          <mxGeometry x="160" y="640" width="570" height="250" as="geometry" />
        </mxCell>
        <mxCell id="tV-kY4EEq9-toIPVNdlh-16" value="UI" style="text;html=1;strokeColor=none;fillColor=none;align=center;verticalAlign=middle;whiteSpace=wrap;rounded=0;fontSize=20;" vertex="1" parent="1">
          <mxGeometry x="160" y="70" width="60" height="40" as="geometry" />
        </mxCell>
        <mxCell id="tV-kY4EEq9-toIPVNdlh-19" value="GameLoop" style="text;html=1;strokeColor=none;fillColor=none;align=center;verticalAlign=middle;whiteSpace=wrap;rounded=0;fontSize=20;" vertex="1" parent="1">
          <mxGeometry x="160" y="210" width="130" height="40" as="geometry" />
        </mxCell>
        <mxCell id="tV-kY4EEq9-toIPVNdlh-21" value="GameSpecific" style="text;html=1;strokeColor=none;fillColor=none;align=center;verticalAlign=middle;whiteSpace=wrap;rounded=0;fontSize=20;" vertex="1" parent="1">
          <mxGeometry x="160" y="360" width="160" height="40" as="geometry" />
        </mxCell>
        <mxCell id="tV-kY4EEq9-toIPVNdlh-22" value="Foundation" style="text;html=1;strokeColor=none;fillColor=none;align=center;verticalAlign=middle;whiteSpace=wrap;rounded=0;fontSize=20;" vertex="1" parent="1">
          <mxGeometry x="160" y="647.5" width="140" height="40" as="geometry" />
        </mxCell>
        <mxCell id="tV-kY4EEq9-toIPVNdlh-24" value="&lt;font style=&quot;font-size: 14px;&quot;&gt;Ship&lt;/font&gt;" style="rounded=0;whiteSpace=wrap;html=1;" vertex="1" parent="1">
          <mxGeometry x="470" y="370" width="60" height="30" as="geometry" />
        </mxCell>
        <mxCell id="tV-kY4EEq9-toIPVNdlh-25" value="&lt;font style=&quot;font-size: 14px;&quot;&gt;TerrainTile&lt;/font&gt;" style="rounded=0;whiteSpace=wrap;html=1;" vertex="1" parent="1">
          <mxGeometry x="540" y="370" width="100" height="30" as="geometry" />
        </mxCell>
        <mxCell id="tV-kY4EEq9-toIPVNdlh-26" value="&lt;font style=&quot;font-size: 14px;&quot;&gt;DynamicGameObjectManager&lt;/font&gt;" style="rounded=0;whiteSpace=wrap;html=1;" vertex="1" parent="1">
          <mxGeometry x="270" y="410" width="210" height="30" as="geometry" />
        </mxCell>
        <mxCell id="tV-kY4EEq9-toIPVNdlh-27" value="&lt;span style=&quot;font-size: 14px;&quot;&gt;RegionCreator&lt;/span&gt;" style="rounded=0;whiteSpace=wrap;html=1;" vertex="1" parent="1">
          <mxGeometry x="170" y="450" width="120" height="30" as="geometry" />
        </mxCell>
        <mxCell id="tV-kY4EEq9-toIPVNdlh-28" value="&lt;span style=&quot;font-size: 14px;&quot;&gt;MapCreationRules&lt;/span&gt;" style="rounded=0;whiteSpace=wrap;html=1;" vertex="1" parent="1">
          <mxGeometry x="300" y="450" width="140" height="30" as="geometry" />
        </mxCell>
        <mxCell id="tV-kY4EEq9-toIPVNdlh-29" value="&lt;span style=&quot;font-size: 14px;&quot;&gt;NoiseCreator&lt;/span&gt;" style="rounded=0;whiteSpace=wrap;html=1;" vertex="1" parent="1">
          <mxGeometry x="170" y="740" width="110" height="30" as="geometry" />
        </mxCell>
        <mxCell id="tV-kY4EEq9-toIPVNdlh-31" value="&lt;span style=&quot;font-size: 14px;&quot;&gt;Missile&lt;/span&gt;" style="rounded=0;whiteSpace=wrap;html=1;" vertex="1" parent="1">
          <mxGeometry x="450" y="450" width="70" height="30" as="geometry" />
        </mxCell>
        <mxCell id="tV-kY4EEq9-toIPVNdlh-32" value="&lt;span style=&quot;font-size: 14px;&quot;&gt;GameObject&lt;/span&gt;" style="rounded=0;whiteSpace=wrap;html=1;" vertex="1" parent="1">
          <mxGeometry x="300" y="652.5" width="110" height="35" as="geometry" />
        </mxCell>
        <mxCell id="tV-kY4EEq9-toIPVNdlh-33" value="&lt;span style=&quot;font-size: 14px;&quot;&gt;StaticGameObject&lt;/span&gt;" style="rounded=0;whiteSpace=wrap;html=1;" vertex="1" parent="1">
          <mxGeometry x="580" y="650" width="130" height="37.5" as="geometry" />
        </mxCell>
        <mxCell id="tV-kY4EEq9-toIPVNdlh-34" value="&lt;span style=&quot;font-size: 14px;&quot;&gt;DynamicGameObject&lt;/span&gt;" style="rounded=0;whiteSpace=wrap;html=1;" vertex="1" parent="1">
          <mxGeometry x="420" y="652.5" width="150" height="35" as="geometry" />
        </mxCell>
        <mxCell id="tV-kY4EEq9-toIPVNdlh-35" value="&lt;span style=&quot;font-size: 14px;&quot;&gt;Camera&lt;/span&gt;" style="rounded=0;whiteSpace=wrap;html=1;" vertex="1" parent="1">
          <mxGeometry x="290" y="740" width="80" height="30" as="geometry" />
        </mxCell>
        <mxCell id="tV-kY4EEq9-toIPVNdlh-37" value="&lt;span style=&quot;font-size: 14px;&quot;&gt;GameLoop&lt;/span&gt;" style="rounded=0;whiteSpace=wrap;html=1;" vertex="1" parent="1">
          <mxGeometry x="300" y="242.5" width="140" height="35" as="geometry" />
        </mxCell>
        <mxCell id="tV-kY4EEq9-toIPVNdlh-38" value="&lt;span style=&quot;font-size: 14px;&quot;&gt;ProcessInput&lt;/span&gt;" style="rounded=0;whiteSpace=wrap;html=1;" vertex="1" parent="1">
          <mxGeometry x="450" y="242.5" width="140" height="35" as="geometry" />
        </mxCell>
        <mxCell id="tV-kY4EEq9-toIPVNdlh-39" value="&lt;span style=&quot;font-size: 14px;&quot;&gt;Screens&lt;/span&gt;" style="rounded=0;whiteSpace=wrap;html=1;" vertex="1" parent="1">
          <mxGeometry x="220" y="90" width="90" height="35" as="geometry" />
        </mxCell>
        <mxCell id="tV-kY4EEq9-toIPVNdlh-40" value="&lt;span style=&quot;font-size: 14px;&quot;&gt;Widgets&lt;/span&gt;" style="rounded=0;whiteSpace=wrap;html=1;" vertex="1" parent="1">
          <mxGeometry x="320" y="90" width="90" height="35" as="geometry" />
        </mxCell>
        <mxCell id="tV-kY4EEq9-toIPVNdlh-44" value="&lt;span style=&quot;font-size: 14px;&quot;&gt;Map&lt;/span&gt;" style="rounded=0;whiteSpace=wrap;html=1;" vertex="1" parent="1">
          <mxGeometry x="390" y="700" width="60" height="30" as="geometry" />
        </mxCell>
        <mxCell id="tV-kY4EEq9-toIPVNdlh-45" value="&lt;span style=&quot;font-size: 14px;&quot;&gt;Region&lt;/span&gt;" style="rounded=0;whiteSpace=wrap;html=1;" vertex="1" parent="1">
          <mxGeometry x="380" y="740" width="80" height="30" as="geometry" />
        </mxCell>
        <mxCell id="tV-kY4EEq9-toIPVNdlh-46" value="&lt;span style=&quot;font-size: 14px;&quot;&gt;Coordinate&lt;/span&gt;" style="rounded=0;whiteSpace=wrap;html=1;" vertex="1" parent="1">
          <mxGeometry x="170" y="700" width="100" height="30" as="geometry" />
        </mxCell>
        <mxCell id="tV-kY4EEq9-toIPVNdlh-47" value="&lt;span style=&quot;font-size: 14px;&quot;&gt;Algorithms&lt;/span&gt;" style="rounded=0;whiteSpace=wrap;html=1;" vertex="1" parent="1">
          <mxGeometry x="280" y="700" width="100" height="30" as="geometry" />
        </mxCell>
        <mxCell id="tV-kY4EEq9-toIPVNdlh-48" value="&lt;span style=&quot;font-size: 14px;&quot;&gt;RegionCreationQueue&lt;/span&gt;" style="rounded=0;whiteSpace=wrap;html=1;" vertex="1" parent="1">
          <mxGeometry x="170" y="490" width="160" height="30" as="geometry" />
        </mxCell>
        <mxCell id="tV-kY4EEq9-toIPVNdlh-49" value="&lt;span style=&quot;font-size: 14px;&quot;&gt;VisibleRegionManager&lt;/span&gt;" style="rounded=0;whiteSpace=wrap;html=1;" vertex="1" parent="1">
          <mxGeometry x="490" y="410" width="160" height="30" as="geometry" />
        </mxCell>
        <mxCell id="tV-kY4EEq9-toIPVNdlh-50" value="&lt;span style=&quot;font-size: 14px;&quot;&gt;Game&lt;/span&gt;" style="rounded=0;whiteSpace=wrap;html=1;" vertex="1" parent="1">
          <mxGeometry x="460" y="700" width="70" height="30" as="geometry" />
        </mxCell>
        <mxCell id="tV-kY4EEq9-toIPVNdlh-51" value="&lt;span style=&quot;font-size: 14px;&quot;&gt;ShipGame&lt;/span&gt;" style="rounded=0;whiteSpace=wrap;html=1;" vertex="1" parent="1">
          <mxGeometry x="170" y="410" width="90" height="30" as="geometry" />
        </mxCell>
        <mxCell id="tV-kY4EEq9-toIPVNdlh-53" value="&lt;span style=&quot;font-size: 14px;&quot;&gt;Animation&lt;/span&gt;" style="rounded=0;whiteSpace=wrap;html=1;" vertex="1" parent="1">
          <mxGeometry x="470" y="740" width="80" height="32.5" as="geometry" />
        </mxCell>
        <mxCell id="tV-kY4EEq9-toIPVNdlh-54" value="&lt;span style=&quot;font-size: 14px;&quot;&gt;HealthAndDamage&lt;/span&gt;" style="rounded=0;whiteSpace=wrap;html=1;" vertex="1" parent="1">
          <mxGeometry x="170" y="780" width="150" height="30" as="geometry" />
        </mxCell>
        <mxCell id="tV-kY4EEq9-toIPVNdlh-55" value="&lt;span style=&quot;font-size: 14px;&quot;&gt;SpriteSheetItem&lt;/span&gt;" style="rounded=0;whiteSpace=wrap;html=1;" vertex="1" parent="1">
          <mxGeometry x="330" y="780" width="120" height="30" as="geometry" />
        </mxCell>
        <mxCell id="tV-kY4EEq9-toIPVNdlh-56" value="&lt;span style=&quot;font-size: 14px;&quot;&gt;ShipGameTextures&lt;/span&gt;" style="rounded=0;whiteSpace=wrap;html=1;" vertex="1" parent="1">
          <mxGeometry x="340" y="490" width="140" height="30" as="geometry" />
        </mxCell>
        <mxCell id="tV-kY4EEq9-toIPVNdlh-57" value="&lt;span style=&quot;font-size: 14px;&quot;&gt;RegionToDrawingDTO&lt;/span&gt;" style="rounded=0;whiteSpace=wrap;html=1;" vertex="1" parent="1">
          <mxGeometry x="560" y="740" width="160" height="32.5" as="geometry" />
        </mxCell>
        <mxCell id="tV-kY4EEq9-toIPVNdlh-58" value="&lt;span style=&quot;font-size: 14px;&quot;&gt;RenderDataBuilder&lt;/span&gt;" style="rounded=0;whiteSpace=wrap;html=1;" vertex="1" parent="1">
          <mxGeometry x="540" y="700" width="140" height="30" as="geometry" />
        </mxCell>
        <mxCell id="tV-kY4EEq9-toIPVNdlh-59" value="&lt;span style=&quot;font-size: 14px;&quot;&gt;RenderDataBuilder&lt;/span&gt;" style="rounded=0;whiteSpace=wrap;html=1;" vertex="1" parent="1">
          <mxGeometry x="320" y="370" width="140" height="30" as="geometry" />
        </mxCell>
        <mxCell id="tV-kY4EEq9-toIPVNdlh-60" value="&lt;span style=&quot;font-size: 14px;&quot;&gt;CollisionBox&lt;/span&gt;" style="rounded=0;whiteSpace=wrap;html=1;" vertex="1" parent="1">
          <mxGeometry x="570" y="780" width="100" height="30" as="geometry" />
        </mxCell>
        <mxCell id="tV-kY4EEq9-toIPVNdlh-61" value="&lt;span style=&quot;font-size: 14px;&quot;&gt;CollisionAction&lt;/span&gt;" style="rounded=0;whiteSpace=wrap;html=1;" vertex="1" parent="1">
          <mxGeometry x="455" y="780" width="110" height="30" as="geometry" />
        </mxCell>
        <mxCell id="tV-kY4EEq9-toIPVNdlh-62" value="&lt;span style=&quot;font-size: 14px;&quot;&gt;FragmentShaders&lt;/span&gt;" style="rounded=0;whiteSpace=wrap;html=1;" vertex="1" parent="1">
          <mxGeometry x="420" y="90" width="130" height="35" as="geometry" />
        </mxCell>
        <mxCell id="tV-kY4EEq9-toIPVNdlh-63" value="&lt;span style=&quot;font-size: 14px;&quot;&gt;SpriteSheet&lt;/span&gt;" style="rounded=0;whiteSpace=wrap;html=1;" vertex="1" parent="1">
          <mxGeometry x="560" y="90" width="100" height="35" as="geometry" />
        </mxCell>
      </root>
    </mxGraphModel>
  </diagram>
</mxfile>
